<svg height="480pt" viewBox="0 0 480 480" width="480pt" xmlns="http://www.w3.org/2000/svg"><path d="m8 8h464v64h-464zm0 0" fill="#9bc9ff"/><path d="m240 152-138.558594 240h277.117188zm0 0" fill="#9bc9ff"/><g fill="#1e81ce"><path d="m120 432h16v16h-16zm0 0"/><path d="m152 432h16v16h-16zm0 0"/><path d="m184 432h16v16h-16zm0 0"/><path d="m216 432h16v16h-16zm0 0"/><path d="m248 432h16v16h-16zm0 0"/><path d="m280 432h16v16h-16zm0 0"/><path d="m312 432h16v16h-16zm0 0"/><path d="m344 432h16v16h-16zm0 0"/><path d="m376 432h16v16h-16zm0 0"/><path d="m88 432h16v16h-16zm0 0"/><path d="m0 0v480h480v-480zm464 464h-448v-384h448zm-448-400v-48h448v48zm0 0"/><path d="m88 32h16v16h-16zm0 0"/><path d="m56 32h16v16h-16zm0 0"/><path d="m24 32h16v16h-16zm0 0"/><path d="m232 208h16v128h-16zm0 0"/><path d="m232 352h16v16h-16zm0 0"/><path d="m120 96h16v16h-16zm0 0"/><path d="m152 96h16v16h-16zm0 0"/><path d="m184 96h16v16h-16zm0 0"/><path d="m216 96h16v16h-16zm0 0"/><path d="m248 96h16v16h-16zm0 0"/><path d="m280 96h16v16h-16zm0 0"/><path d="m312 96h16v16h-16zm0 0"/><path d="m344 96h16v16h-16zm0 0"/><path d="m376 96h16v16h-16zm0 0"/><path d="m88 96h16v16h-16zm0 0"/><path d="m48 112h24v-16h-40v40h16zm0 0"/><path d="m432 136h16v-40h-40v16h24zm0 0"/><path d="m72 432h-24v-24h-16v40h40zm0 0"/><path d="m448 408h-16v24h-24v16h40zm0 0"/><path d="m32 152h16v16h-16zm0 0"/><path d="m32 184h16v16h-16zm0 0"/><path d="m32 216h16v16h-16zm0 0"/><path d="m32 248h16v16h-16zm0 0"/><path d="m32 280h16v16h-16zm0 0"/><path d="m32 312h16v16h-16zm0 0"/><path d="m32 344h16v16h-16zm0 0"/><path d="m32 376h16v16h-16zm0 0"/><path d="m432 152h16v16h-16zm0 0"/><path d="m432 184h16v16h-16zm0 0"/><path d="m432 216h16v16h-16zm0 0"/><path d="m432 248h16v16h-16zm0 0"/><path d="m432 280h16v16h-16zm0 0"/><path d="m432 312h16v16h-16zm0 0"/><path d="m432 344h16v16h-16zm0 0"/><path d="m432 376h16v16h-16zm0 0"/><path d="m120 32h328v16h-328zm0 0"/><path d="m240 136-152.425781 264h304.851562zm0 32 124.703125 216h-249.40625zm0 0"/></g></svg>