<svg id="Capa_1" enable-background="new 0 0 512 512" height="512" viewBox="0 0 512 512" width="512" xmlns="http://www.w3.org/2000/svg" xmlns:xlink="http://www.w3.org/1999/xlink"><linearGradient id="SVGID_1_" gradientUnits="userSpaceOnUse" x1="241" x2="241" y1="512" y2="0"><stop offset="0" stop-color="#5558ff"/><stop offset="1" stop-color="#00c0ff"/></linearGradient><linearGradient id="SVGID_2_" gradientUnits="userSpaceOnUse" x1="256" x2="256" y1="512" y2="0"><stop offset="0" stop-color="#addcff"/><stop offset=".5028" stop-color="#eaf6ff"/><stop offset="1" stop-color="#eaf6ff"/></linearGradient><g id="Membership_15_"><g><g><path d="m346 0h-285l30 150v317c0 24.899 20.098 45 45 45l75-.3 210-59.7v-377c0-41.4-33.6-75-75-75z" fill="url(#SVGID_1_)"/></g></g><g><g><path d="m466 452h-270c-8.401 0-15 6.599-15 15 0 23.099-17.1 41.999-39.6 44.399-1.5.3-3.3.601-5.4.601h315c16.5 0 30-13.5 30-30v-15c0-8.401-6.599-15-15-15zm-405-452c-16.15 0-30 13.247-30 30v105c0 8.399 6.599 15 15 15h45v-120c0-16.5-13.5-30-30-30zm150.352 180.502-5.405 31.509c-2.098 12.206 10.774 21.622 21.768 15.806l28.285-14.869 28.286 14.868c10.915 5.749 23.882-3.505 21.768-15.806l-5.405-31.509 22.896-22.31c8.891-8.668 3.949-23.796-8.32-25.576l-31.626-4.6-14.15-28.652c-5.039-10.254-21.855-10.254-26.895 0l-14.15 28.652-31.626 4.6c-12.289 1.783-17.198 16.921-8.32 25.576zm-45.352 180.498h180c8.291 0 15-6.709 15-15s-6.709-15-15-15h-180c-8.291 0-15 6.709-15 15s6.709 15 15 15zm0-60h180c8.291 0 15-6.709 15-15s-6.709-15-15-15h-180c-8.291 0-15 6.709-15 15s6.709 15 15 15z" fill="url(#SVGID_2_)"/></g></g></g></svg>